#!OML:ASF Y:\EmotionMaleHayes\Project 1\Capture day 1\Session 1\Male1.ASF
:FULLY-SPECIFIED
:DEGREES
1
root -30.4196 17.0395 1.24758 86.5682 84.0747 86.6729
lowerback 3.86032 1.6842 -8.91125
upperback 1.04485 1.92907 -1.64261
thorax -1.31577 1.00745 3.18861
lowerneck -19.9722 4.57377 6.75957
upperneck 25.3151 5.61485 -3.59759
head 11.9301 2.8167 -1.54645
rclavicle 1.64494e-014 2.78299e-015
rhumerus -33.5493 8.3705 -92.7923
rradius 29.7767
rwrist 7.44202
rhand -10.9924 -30.8241
rfingers 7.12502
rthumb 15.0278 -60.2588
lclavicle 1.64494e-014 2.78299e-015
lhumerus -30.278 -5.64639 91.1261
lradius 22.5636
lwrist -18.2713
lhand -14.8277 -26.7814
lfingers 7.12502
lthumb 11.3309 2.89252
rfemur 8.57144 -6.32902 8.64123
rtibia 4.1052
rfoot -17.7352 -3.96529
rtoes 3.9576
lfemur 9.38957 3.06491 -24.4491
ltibia -1.66579
lfoot -10.426 10.3837
ltoes -9.49306
2
root -30.4206 17.039 1.24869 86.4618 84.0384 86.5603
lowerback 3.99305 1.71071 -9.01649
upperback 0.956974 1.93858 -1.6133
thorax -1.48732 1.02127 3.27125
lowerneck -19.9631 4.57947 6.78103
upperneck 25.4038 5.64036 -3.64981
head 11.9668 2.82554 -1.5653
rclavicle -1.46604e-015 5.20816e-014
rhumerus -33.7074 8.38399 -92.7904
rradius 29.8474
rwrist 7.46133
rhand -11.1031 -30.9632
rfingers 7.12502
rthumb 14.9212 -60.4058
lclavicle -1.46604e-015 5.20816e-014
lhumerus -30.577 -6.0616 91.3438
lradius 22.8027
lwrist -17.928
lhand -13.855 -26.6025
lfingers 7.12502
lthumb 12.2689 3.01758
rfemur 8.57105 -6.27861 8.60242
rtibia 4.07349
rfoot -17.7349 -3.94795
rtoes 3.9392
lfemur 9.37483 3.09367 -24.487
ltibia -1.65182
lfoot -10.46 10.318
ltoes -9.59296
3
root -30.4216 17.0401 1.24999 86.6547 84.0201 86.7613
lowerback 3.95731 1.69641 -9.04396
upperback 0.999834 1.92602 -1.61827
thorax -1.42164 1.0116 3.28396
lowerneck -19.8647 4.53718 6.79606
upperneck 25.3313 5.61076 -3.75799
head 11.9212 2.80084 -1.61494
rclavicle 9.61621e-015 -2.00773e-014
rhumerus -33.6194 8.43047 -92.7976
rradius 29.8324
rwrist 7.4632
rhand -11.139 -30.9061
rfingers 7.12502
rthumb 14.8866 -60.3513
lclavicle 9.61621e-015 -2.00773e-014
lhumerus -30.4605 -5.85765 91.2795
lradius 22.6395
lwrist -18.3428
lhand -14.0831 -26.5251
lfingers 7.12502
lthumb 12.049 3.10801
rfemur 8.58472 -6.26145 8.59364
rtibia 4.07401
rfoot -17.7466 -3.91665
rtoes 4.37715
lfemur 9.37858 3.08748 -24.5015
ltibia -1.65106
lfoot -10.5497 10.2312
ltoes -9.54301
4
root -30.4199 17.0397 1.25015 86.3798 83.9364 86.4579
lowerback 3.90628 1.70235 -9.13454
upperback 0.991802 1.93603 -1.63996
thorax -1.40461 1.0167 3.31235
lowerneck -19.8016 4.57807 6.90626
upperneck 25.2799 5.6782 -3.90399
head 11.9017 2.82341 -1.67761
rclavicle 1.55425e-014 -1.0138e-014
rhumerus -33.6207 8.47577 -92.8178
rradius 29.8662
rwrist 7.42506
rhand -11.1039 -30.9605
rfingers 7.12502
rthumb 14.9204 -60.4031
lclavicle 1.55425e-014 -1.0138e-014
lhumerus -30.4939 -5.73489 91.2164
lradius 22.6358
lwrist -18.3677
lhand -15.8598 -26.841
lfingers 7.12502
lthumb 10.3354 2.88505
rfemur 8.54534 -6.25108 8.49511
rtibia 4.08875
rfoot -17.7879 -3.92382
rtoes 4.76902
lfemur 9.36805 3.06221 -24.6094
ltibia -1.68294
lfoot -10.6217 10.2561
ltoes -9.337
5
root -30.4198 17.0424 1.25106 86.4843 83.8761 86.6629
lowerback 4.00825 1.70568 -9.21564
upperback 1.02152 1.92853 -1.65223
thorax -1.43186 1.01399 3.34263
lowerneck -19.7307 4.57178 6.92342
upperneck 25.2288 5.68221 -3.95739
head 11.8704 2.82082 -1.70086
rclavicle 9.21864e-015 -2.88238e-014
rhumerus -33.6141 8.45045 -92.8218
rradius 29.8556
rwrist 7.4504
rhand -11.1283 -30.9986
rfingers 7.12502
rthumb 14.8969 -60.443
lclavicle 9.21864e-015 -2.88238e-014
lhumerus -30.5194 -5.89684 91.2987
lradius 22.6903
lwrist -18.1235
lhand -15.3622 -26.5453
lfingers 7.12502
lthumb 10.8154 3.15621
rfemur 8.65889 -6.35306 8.36527
rtibia 4.05256
rfoot -17.7377 -3.83878
rtoes 4.66864
lfemur 9.47006 3.07208 -24.6743
ltibia -1.68307
lfoot -10.5801 10.2547
ltoes -9.04486
6
root -30.4196 17.0416 1.24946 86.8719 83.9223 87.0728
lowerback 4.0317 1.69145 -9.15123
upperback 1.03014 1.9099 -1.64235
thorax -1.43209 1.00414 3.31785
lowerneck -19.7793 4.62028 6.94375
upperneck 25.2895 5.73772 -3.93152
head 11.9071 2.8508 -1.68451
rclavicle 1.86361e-015 3.97569e-015
rhumerus -33.5846 8.39395 -92.796
rradius 29.7689
rwrist 7.52323
rhand -11.1642 -30.8431
rfingers 7.12502
rthumb 14.8623 -60.29
lclavicle 1.86361e-015 3.97569e-015
lhumerus -30.4356 -5.72531 91.2396
lradius 22.5225
lwrist -18.2556
lhand -14.9495 -26.8959
lfingers 7.12502
lthumb 11.2134 2.78442
rfemur 8.68362 -6.56428 8.3397
rtibia 4.03709
rfoot -17.6308 -3.67419
rtoes 4.37533
lfemur 9.48836 3.03626 -24.6415
ltibia -1.67788
lfoot -10.5289 10.2916
ltoes -9.4234
7
root -30.4197 17.041 1.24769 87.3705 83.9095 87.5331
lowerback 3.99637 1.66981 -9.14954
upperback 1.02202 1.88461 -1.64462
thorax -1.41744 0.991151 3.31698
lowerneck -19.8229 4.63901 6.8952
upperneck 25.3796 5.75485 -3.83295
head 11.9469 2.86702 -1.63591
rclavicle 5.70264e-015 -9.74045e-015
rhumerus -33.5815 8.43458 -92.7904
rradius 29.7454
rwrist 7.53363
rhand -11.2383 -30.7378
rfingers 7.12502
rthumb 14.7909 -60.19
lclavicle 5.70264e-015 -9.74045e-015
lhumerus -30.4133 -5.63477 91.2341
lradius 22.5195
lwrist -18.2658
lhand -15.9692 -26.9846
lfingers 7.12502
lthumb 10.2299 2.74666
rfemur 8.65636 -6.70888 8.27516
rtibia 4.07678
rfoot -17.6234 -3.59519
rtoes 4.53801
lfemur 9.42656 3.04589 -24.6655
ltibia -1.65025
lfoot -10.4653 10.2799
ltoes -10.1638
8
root -30.4194 17.0428 1.24737 87.2825 83.8431 87.4552
lowerback 3.98676 1.67663 -9.21078
upperback 1.03778 1.89405 -1.66214
thorax -1.39797 0.99516 3.33272
lowerneck -19.7746 4.63885 6.83282
upperneck 25.3528 5.75158 -3.74438
head 11.9215 2.87159 -1.5937
rclavicle -7.36746e-015 2.34566e-014
rhumerus -33.5946 8.51636 -92.8113
rradius 29.7949
rwrist 7.52748
rhand -11.3587 -30.8314
rfingers 7.12502
rthumb 14.6749 -60.2921
lclavicle -7.36746e-015 2.34566e-014
lhumerus -30.4096 -5.65055 91.2411
lradius 22.5063
lwrist -18.2488
lhand -14.7933 -26.6415
lfingers 7.12502
lthumb 11.3641 3.03054
rfemur 8.66531 -6.89386 8.11951
rtibia 4.14464
rfoot -17.6556 -3.41654
rtoes 5.29783
lfemur 9.4311 3.10697 -24.7303
ltibia -1.64286
lfoot -10.3845 10.2348
ltoes -9.81811
9
root -30.4196 17.0422 1.24823 87.1806 83.837 87.3969
lowerback 4.04041 1.67667 -9.14884
upperback 1.04605 1.89159 -1.7207
thorax -1.41523 0.994755 3.23639
lowerneck -19.6835 4.63173 6.90986
upperneck 25.2931 5.71875 -3.74142
head 11.881 2.86573 -1.61236
rclavicle -5.65294e-015 -5.12864e-014
rhumerus -33.5979 8.45374 -92.8891
rradius 29.7975
rwrist 7.59813
rhand -11.4629 -30.9211
rfingers 7.12502
rthumb 14.5745 -60.3891
lclavicle -5.65294e-015 -5.12864e-014
lhumerus -30.4211 -5.79736 91.19
lradius 22.5087
lwrist -18.1437
lhand -15.292 -26.6478
lfingers 7.12502
lthumb 10.8831 3.05016
rfemur 8.7092 -6.86555 8.10207
rtibia 4.13523
rfoot -17.7162 -3.28834
rtoes 6.25665
lfemur 9.48148 3.14722 -24.7205
ltibia -1.64227
lfoot -10.4522 10.1904
ltoes -9.20617
10
root -30.4212 17.0356 1.24973 87.8525 83.9014 87.9683
lowerback 3.99201 1.643 -9.16338
upperback 0.996378 1.84715 -1.6629
thorax -1.43683 0.97413 3.30764
lowerneck -19.6561 4.60424 6.94165
upperneck 25.3195 5.70063 -3.83135
head 11.8887 2.8504 -1.65474
rclavicle -3.40419e-015 -3.73715e-014
rhumerus -33.6428 8.45928 -92.8235
rradius 29.8096
rwrist 7.59485
rhand -11.4912 -30.9244
rfingers 7.12502
rthumb 14.5473 -60.3943
lclavicle -3.40419e-015 -3.73715e-014
lhumerus -30.4625 -5.74196 91.2291
lradius 22.5286
lwrist -18.1472
lhand -15.8071 -26.75
lfingers 7.12502
lthumb 10.3862 2.97344
rfemur 8.61739 -6.61097 8.28721
rtibia 4.07084
rfoot -17.7717 -3.4788
rtoes 5.92362
lfemur 9.33952 3.16621 -24.6304
ltibia -1.58427
lfoot -10.4994 10.1554
ltoes -9.28699
11
root -30.4166 17.036 1.24639 87.3954 83.9441 87.5001
lowerback 3.82231 1.62865 -9.05387
upperback 1.0719 1.85731 -1.68115
thorax -1.26029 0.969915 3.2335
lowerneck -19.6174 4.62792 6.93627
upperneck 25.2031 5.71883 -3.79452
head 11.8358 2.86122 -1.63774
rclavicle 1.76794e-014 -2.5842e-015
rhumerus -33.5024 8.40613 -92.8038
rradius 29.8189
rwrist 7.43288
rhand -11.313 -30.9673
rfingers 7.12502
rthumb 14.719 -60.4248
lclavicle 1.76794e-014 -2.5842e-015
lhumerus -30.3508 -5.67044 91.1575
lradius 22.4956
lwrist -18.1586
lhand -15.3103 -26.7249
lfingers 7.12502
lthumb 10.8654 2.97396
rfemur 8.60595 -6.61201 8.32833
rtibia 4.08902
rfoot -17.7582 -3.47129
rtoes 5.0597
lfemur 9.38423 3.07991 -24.6277
ltibia -1.65636
lfoot -10.5507 10.2915
ltoes -8.79913
